<svg width="32" height="32" viewBox="0 0 32 32" fill="none" xmlns="http://www.w3.org/2000/svg">
<path fill-rule="evenodd" clip-rule="evenodd" d="M15.3278 0.0141694C12.0644 0.152766 8.98839 1.25506 6.36719 3.22527C5.76964 3.67441 5.30976 4.07651 4.71459 4.67025C4.2379 5.14578 4.0359 5.36453 3.69305 5.77643C0.517647 9.59136 -0.700364 14.6667 0.392351 19.5301C0.929311 21.9199 2.03863 24.2025 3.57975 26.0888C4.23883 26.8955 5.10611 27.7628 5.91278 28.4219C9.35213 31.232 13.8624 32.4747 18.303 31.8357C20.6256 31.5014 22.8235 30.6651 24.8086 29.3602C25.419 28.959 26.0731 28.4555 26.6565 27.938C26.9187 27.7054 27.5422 27.0895 27.7925 26.8159C31.0659 23.2367 32.5296 18.4595 31.8279 13.6454C31.434 10.9432 30.3182 8.34052 28.6203 6.16382C27.9865 5.3513 27.1992 4.52633 26.4142 3.85222C25.0273 2.66129 23.4156 1.7017 21.7035 1.04748C19.6916 0.278745 17.492 -0.0777437 15.3278 0.0141694ZM9.23166 6.94128C9.69491 7.03909 10.0647 7.23317 10.3746 7.54108C10.6789 7.84357 10.8667 8.19818 10.9443 8.61712C10.9863 8.84413 10.9796 9.20744 10.9288 9.45191C10.8604 9.78104 10.7456 10.0428 10.5638 10.2844C10.0407 10.9793 9.03736 11.297 8.04179 11.0831C7.49754 10.9661 7.00587 10.6403 6.70798 10.1993C6.28835 9.57804 6.23591 8.7627 6.57081 8.06644C6.75499 7.68351 7.0863 7.35286 7.48806 7.15104C7.86308 6.96264 8.23337 6.8873 8.73768 6.89673C8.99766 6.90159 9.07805 6.90883 9.23166 6.94128ZM21.037 12.5323C21.2623 12.5456 21.6099 12.5936 21.8603 12.6461C23.7167 13.0353 24.9491 14.4169 25.2918 16.4931C25.3349 16.754 25.3596 16.9494 25.4019 17.364C25.4137 17.4805 25.4206 18.6451 25.4245 21.2341C25.4299 24.7526 25.4288 24.9402 25.4034 24.9896C25.3887 25.0181 25.3574 25.0556 25.3338 25.0729C25.2912 25.1041 25.2859 25.1043 23.395 25.1081C21.6127 25.1117 21.4959 25.1104 21.447 25.0854C21.4185 25.0708 21.381 25.0396 21.3637 25.016L21.3324 24.9733L21.3238 21.5019C21.3146 17.7317 21.3194 17.944 21.2335 17.5217C21.126 16.9925 20.9317 16.6096 20.6112 16.2949C20.347 16.0354 20.0243 15.8636 19.6423 15.779C19.4412 15.7344 19.0865 15.7304 18.8861 15.7703C18.1848 15.91 17.5469 16.4243 17.2569 17.0838C17.1546 17.3166 17.0867 17.5776 17.054 17.8639C17.0438 17.9533 17.0384 19.2003 17.0383 21.4886C17.0382 25.357 17.0468 25.0453 16.9392 25.0903C16.8621 25.1225 13.1247 25.1225 13.0475 25.0903C12.951 25.05 12.9405 25.0073 12.9446 24.6725C12.9465 24.5101 12.95 21.8028 12.9523 18.6562L12.9564 12.9353L12.988 12.8927C13.0054 12.8693 13.036 12.8417 13.056 12.8315C13.0843 12.8169 13.5158 12.8127 14.9979 12.8125C17.0909 12.8123 16.9656 12.8067 17.0152 12.9027C17.0349 12.9407 17.0382 13.0583 17.0382 13.7151V14.4832L17.0704 14.4543C17.0881 14.4385 17.1793 14.3232 17.2732 14.1983C17.7583 13.5522 18.2883 13.1199 18.9331 12.8443C19.55 12.5806 20.2053 12.4834 21.037 12.5323ZM10.6464 12.8681C10.6734 12.8984 10.693 12.9408 10.6987 12.9818C10.7038 13.0177 10.706 15.7305 10.7036 19.0102L10.6992 24.9733L10.6678 25.016C10.6506 25.0396 10.6131 25.0707 10.5845 25.0853C10.5359 25.1101 10.4123 25.1118 8.6468 25.1118C6.88176 25.1118 6.75761 25.1101 6.70799 25.0853C6.67767 25.0701 6.64365 25.0361 6.6285 25.0058C6.60342 24.9556 6.60201 24.6351 6.60199 18.9605C6.60196 14.5431 6.60646 12.9554 6.61909 12.9192C6.62852 12.8921 6.65748 12.857 6.68347 12.8411C6.72939 12.813 6.78464 12.8123 8.66698 12.816L10.6032 12.8199L10.6464 12.8681Z" fill="#FDCD49"/>
</svg>
