<svg width="32" height="32" viewBox="0 0 32 32" fill="none" xmlns="http://www.w3.org/2000/svg">
<path fill-rule="evenodd" clip-rule="evenodd" d="M15.0796 0.0241562C9.9572 0.314079 5.28344 3.04889 2.49823 7.38599C1.32483 9.21319 0.545406 11.25 0.186134 13.4278C0.0351119 14.3433 0.000652791 14.8168 1.2188e-05 15.9865C-0.000628415 17.1465 0.0236077 17.5093 0.161978 18.4118C0.78072 22.4474 2.88873 26.0527 6.11112 28.5866C9.87691 31.5477 14.8008 32.6613 19.5056 31.6158C23.6504 30.6947 27.2724 28.1381 29.5648 24.5152C30.7409 22.6565 31.5429 20.4853 31.8537 18.3185C31.982 17.4242 32 17.1392 32 15.9998C32 14.6327 31.9397 13.9979 31.6951 12.7882C30.3929 6.34826 25.1844 1.3185 18.683 0.222529C17.5338 0.0287938 16.248 -0.041968 15.0796 0.0241562ZM23.4875 9.71644C23.6311 9.79093 23.7522 9.92184 23.8264 10.083C23.8806 10.2005 23.8876 10.2556 23.8859 10.5494L23.8839 10.8826L22.5577 17.1059C21.8283 20.5287 21.2126 23.3951 21.1894 23.4757C21.0923 23.8135 20.8963 24.0762 20.6797 24.1588C20.512 24.2227 20.2277 24.198 19.9963 24.0994C19.8613 24.0419 19.3041 23.6458 17.8163 22.5496C16.717 21.7397 15.8051 21.077 15.7899 21.077C15.7661 21.077 15.2644 21.5527 13.8902 22.8779C13.7352 23.0273 13.5607 23.1739 13.5023 23.2036C13.3977 23.2569 13.0935 23.3272 13.0698 23.3035C13.0631 23.2968 13.1203 22.3823 13.1968 21.2714L13.336 19.2514L13.4102 19.1847C16.6912 16.2357 20.8311 12.4773 20.8542 12.4268C20.929 12.2629 20.7471 12.1864 20.4899 12.2734C20.3894 12.3074 18.7683 13.3126 15.7126 15.2356L11.0873 18.1464L9.06633 17.5168C7.95478 17.1705 6.97153 16.8514 6.88132 16.8077C6.34014 16.5453 6.41018 16.1038 7.04419 15.7808C7.11698 15.7438 8.22802 15.3083 9.51318 14.8131C10.7984 14.3179 14.3002 12.9686 17.295 11.8146C20.2898 10.6606 22.7942 9.70028 22.8602 9.68061C23.0335 9.62904 23.3544 9.64738 23.4875 9.71644Z" fill="#FDCD49"/>
</svg>
