<svg width="32" height="32" viewBox="0 0 32 32" fill="none" xmlns="http://www.w3.org/2000/svg">
<path fill-rule="evenodd" clip-rule="evenodd" d="M15.4001 0.00361414C14.8135 0.025454 14.0087 0.106336 13.4284 0.201811C10.2055 0.731984 7.2577 2.20674 4.90449 4.46616C4.14968 5.19089 3.47085 5.98787 2.84754 6.88111C1.9574 8.15675 1.22791 9.63925 0.748962 11.146C0.314853 12.5116 0.0721585 13.8908 0.00886983 15.3514C-0.00759573 15.7315 -2.87421e-05 16.6284 0.0224289 16.958C0.175472 19.2036 0.71598 21.2119 1.69345 23.1668C2.13887 24.0577 2.60715 24.8125 3.22228 25.6312C4.69158 27.5868 6.63181 29.2047 8.81904 30.2984C11.0781 31.4279 13.4929 32 16.0019 32C18.141 32 20.2169 31.5827 22.1918 30.7556C25.72 29.2781 28.6045 26.5795 30.3168 23.154C31.2249 21.3375 31.7741 19.392 31.9484 17.374C31.9934 16.8542 31.9999 16.6802 32 16.0042C32.0001 15.3016 31.9923 15.1082 31.9414 14.5448C31.694 11.8102 30.7231 9.13411 29.1661 6.89578C27.9783 5.18832 26.5789 3.81803 24.8298 2.64972C23.6484 1.86064 22.2368 1.18478 20.8545 0.746399C19.6144 0.353115 18.4178 0.127804 17.0326 0.0267597C16.7771 0.00812036 15.6924 -0.00725457 15.4001 0.00361414ZM20.3296 7.67734C21.2864 7.76417 22.1809 8.17414 22.8689 8.84117L23.0204 8.98802L23.1634 8.95876C23.5685 8.87589 24.1674 8.69128 24.5804 8.52202C24.8346 8.41784 25.3213 8.18207 25.5405 8.05693C25.6214 8.01075 25.6895 7.97488 25.6919 7.97721C25.6942 7.97954 25.6634 8.06698 25.6234 8.17152C25.3065 8.99979 24.7566 9.6889 24.0176 10.1839L23.857 10.2915L23.9338 10.2825C24.102 10.2629 24.536 10.1843 24.7536 10.134C25.2329 10.0233 25.7517 9.85287 26.2108 9.65522C26.2679 9.63063 26.2723 9.62073 26.1499 9.79539C25.6459 10.5145 25.0213 11.1617 24.3122 11.6996L24.1646 11.8116L24.1686 12.2373C24.1752 12.9354 24.1285 13.5436 24.0158 14.2312C23.7533 15.8317 23.1487 17.4317 22.2811 18.8221C21.5613 19.9756 20.6578 20.9961 19.6204 21.8271C17.9413 23.1723 15.8621 24.0188 13.6588 24.2543C13.0666 24.3176 12.924 24.3246 12.2248 24.325C11.5377 24.3254 11.3933 24.319 10.906 24.2666C9.49019 24.1143 8.13933 23.7173 6.86072 23.0775C6.47492 22.8845 5.95322 22.5907 5.79097 22.475L5.75256 22.4476L5.83578 22.4551C5.88156 22.4592 5.99391 22.4697 6.08545 22.4784C6.31239 22.5001 7.23794 22.4999 7.44905 22.4782C8.35418 22.3851 8.98987 22.2398 9.77292 21.9469C10.2683 21.7617 10.892 21.445 11.3478 21.1472C11.5149 21.0381 11.8649 20.7897 11.9367 20.7293L11.9752 20.697L11.8919 20.6965C11.565 20.6945 11.0312 20.5959 10.6756 20.4718C10.0855 20.2659 9.51484 19.9079 9.07591 19.4682C8.62818 19.0198 8.26742 18.4447 8.06873 17.8628L8.03891 17.7755L8.07368 17.7829C8.09279 17.7869 8.16894 17.7985 8.24288 17.8086C8.7406 17.8764 9.18784 17.8625 9.67689 17.764C9.96253 17.7064 9.95774 17.7088 9.83694 17.682C9.08175 17.5141 8.36195 17.1165 7.80755 16.561C7.03874 15.7907 6.61507 14.8207 6.56988 13.7276L6.5615 13.5248L6.70227 13.5954C7.16287 13.8264 7.59386 13.9573 8.09563 14.0185C8.32125 14.046 8.46904 14.0559 8.45414 14.0423C8.4471 14.0359 8.39812 14 8.34531 13.9625C8.08168 13.7751 7.71969 13.43 7.51396 13.17C6.91344 12.4108 6.60363 11.5157 6.60414 10.5414C6.6045 9.84823 6.75044 9.24175 7.0655 8.62402C7.17842 8.40263 7.15134 8.40506 7.31609 8.60153C7.73337 9.09911 8.2792 9.63972 8.82545 10.0964C8.90291 10.1612 9.10444 10.3181 9.27329 10.445C10.0043 10.9947 10.7216 11.4185 11.5557 11.7937C12.7909 12.3493 14.1205 12.6912 15.4814 12.8032C15.7938 12.8289 15.8533 12.829 15.8438 12.8041C15.8261 12.758 15.784 12.506 15.765 12.3317C15.735 12.0576 15.7344 11.5726 15.7637 11.3572C15.8958 10.389 16.2976 9.56904 16.9683 8.89916C17.1701 8.69767 17.3118 8.57815 17.532 8.42391C18.1068 8.02119 18.8059 7.756 19.4653 7.69053C19.5428 7.68284 19.6234 7.67457 19.6446 7.67213C19.736 7.66164 20.1949 7.66512 20.3296 7.67734Z" fill="#FDCD49"/>
</svg>
