<svg width="690" height="685" viewBox="0 0 690 685" fill="none" xmlns="http://www.w3.org/2000/svg">
<path fill-rule="evenodd" clip-rule="evenodd" d="M396.197 29.3286C373.24 -9.77622 316.76 -9.77621 293.803 29.3286C277.922 56.3818 243.774 66.4201 215.805 52.2577C175.375 31.7862 127.861 62.3576 129.666 107.68C130.914 139.035 107.608 165.963 76.4313 169.188C31.3652 173.849 7.90219 225.286 33.8954 262.437C51.8778 288.138 46.8129 323.406 22.3264 342.994C-13.0683 371.309 -5.03028 427.28 36.8986 444.464C65.9054 456.352 80.6897 488.763 70.6682 518.495C56.1824 561.473 93.1694 604.208 137.722 595.969C168.544 590.269 198.483 609.533 206.108 639.97C217.131 683.966 271.324 699.897 304.354 668.851C327.205 647.373 362.795 647.373 385.646 668.851C418.676 699.897 472.869 683.965 483.892 639.97C491.517 609.533 521.456 590.269 552.278 595.969C596.831 604.208 633.818 561.473 619.332 518.495C609.31 488.763 624.095 456.352 653.101 444.464C695.03 427.28 703.068 371.309 667.673 342.994C643.187 323.406 638.122 288.138 656.105 262.437C682.098 225.286 658.635 173.849 613.569 169.188C582.392 165.963 559.086 139.035 560.334 107.68C562.139 62.3576 514.625 31.7862 474.195 52.2577C446.226 66.4201 412.078 56.3818 396.197 29.3286Z" fill="black"/>
</svg>
