<svg width="255" height="108" viewBox="0 0 255 108" fill="none" xmlns="http://www.w3.org/2000/svg">
<path d="M255 12H0V108H255V12Z" fill="#FFCD20"/>
<path d="M28.5 30C31.2614 30 33.5 27.7614 33.5 25C33.5 22.2386 31.2614 20 28.5 20C25.7386 20 23.5 22.2386 23.5 25C23.5 27.7614 25.7386 30 28.5 30Z" fill="#FFFCF8"/>
<path fill-rule="evenodd" clip-rule="evenodd" d="M24 13.5C24 10.5158 24.6343 7.88858 25.5872 6.06212C26.578 4.16312 27.6839 3.5 28.5 3.5C29.3161 3.5 30.422 4.16312 31.4128 6.06212C32.2025 7.57569 32.7733 9.63918 32.9457 12H35.9526C35.7754 9.21187 35.108 6.65905 34.0725 4.67442C32.8917 2.41125 30.9977 0.5 28.5 0.5C26.0023 0.5 24.1083 2.41125 22.9275 4.67442C21.7088 7.01015 21 10.1329 21 13.5C21 16.8671 21.7088 19.9899 22.9275 22.3256C24.1083 24.5888 26.0023 26.5 28.5 26.5C30.5105 26.5 32.1299 25.2616 33.301 23.5982C32.9846 22.5126 32.31 21.5798 31.4137 20.9361L31.4128 20.9379C30.422 22.8369 29.3161 23.5 28.5 23.5C27.6839 23.5 26.578 22.8369 25.5872 20.9379C24.6343 19.1114 24 16.4842 24 13.5Z" fill="#C5C5C9"/>
<path d="M94 30C96.7614 30 99 27.7614 99 25C99 22.2386 96.7614 20 94 20C91.2386 20 89 22.2386 89 25C89 27.7614 91.2386 30 94 30Z" fill="#FFFCF8"/>
<path fill-rule="evenodd" clip-rule="evenodd" d="M89.5 13.5C89.5 10.5158 90.1343 7.88858 91.0872 6.06212C92.078 4.16312 93.1839 3.5 94 3.5C94.8161 3.5 95.922 4.16312 96.9128 6.06212C97.7025 7.57569 98.2733 9.63918 98.4457 12H101.453C101.275 9.21187 100.608 6.65905 99.5725 4.67442C98.3917 2.41125 96.4977 0.5 94 0.5C91.5023 0.5 89.6083 2.41125 88.4275 4.67442C87.2088 7.01015 86.5 10.1329 86.5 13.5C86.5 16.8671 87.2088 19.9899 88.4275 22.3256C89.6083 24.5888 91.5023 26.5 94 26.5C96.0105 26.5 97.6299 25.2616 98.801 23.5982C98.4846 22.5126 97.81 21.5798 96.9137 20.9361L96.9128 20.9379C95.922 22.8369 94.8161 23.5 94 23.5C93.1839 23.5 92.078 22.8369 91.0872 20.9379C90.1343 19.1114 89.5 16.4842 89.5 13.5Z" fill="#C5C5C9"/>
<path d="M160 30C162.761 30 165 27.7614 165 25C165 22.2386 162.761 20 160 20C157.239 20 155 22.2386 155 25C155 27.7614 157.239 30 160 30Z" fill="#FFFCF8"/>
<path fill-rule="evenodd" clip-rule="evenodd" d="M155.5 13.5C155.5 10.5158 156.134 7.88858 157.087 6.06212C158.078 4.16312 159.184 3.5 160 3.5C160.816 3.5 161.922 4.16312 162.913 6.06212C163.702 7.57569 164.273 9.63918 164.446 12H167.453C167.275 9.21187 166.608 6.65905 165.573 4.67442C164.392 2.41125 162.498 0.5 160 0.5C157.502 0.5 155.608 2.41125 154.427 4.67442C153.209 7.01015 152.5 10.1329 152.5 13.5C152.5 16.8671 153.209 19.9899 154.427 22.3256C155.608 24.5888 157.502 26.5 160 26.5C162.01 26.5 163.63 25.2616 164.801 23.5982C164.485 22.5126 163.81 21.5798 162.914 20.9361L162.913 20.9379C161.922 22.8369 160.816 23.5 160 23.5C159.184 23.5 158.078 22.8369 157.087 20.9379C156.134 19.1114 155.5 16.4842 155.5 13.5Z" fill="#C5C5C9"/>
<path d="M226 30C228.761 30 231 27.7614 231 25C231 22.2386 228.761 20 226 20C223.239 20 221 22.2386 221 25C221 27.7614 223.239 30 226 30Z" fill="#FFFCF8"/>
<path fill-rule="evenodd" clip-rule="evenodd" d="M221.5 13.5C221.5 10.5158 222.134 7.88858 223.087 6.06212C224.078 4.16312 225.184 3.5 226 3.5C226.816 3.5 227.922 4.16312 228.913 6.06212C229.702 7.57569 230.273 9.63918 230.446 12H233.453C233.275 9.21187 232.608 6.65905 231.573 4.67442C230.392 2.41125 228.498 0.5 226 0.5C223.502 0.5 221.608 2.41125 220.427 4.67442C219.209 7.01015 218.5 10.1329 218.5 13.5C218.5 16.8671 219.209 19.9899 220.427 22.3256C221.608 24.5888 223.502 26.5 226 26.5C228.01 26.5 229.63 25.2616 230.801 23.5982C230.485 22.5126 229.81 21.5798 228.914 20.9361L228.913 20.9379C227.922 22.8369 226.816 23.5 226 23.5C225.184 23.5 224.078 22.8369 223.087 20.9379C222.134 19.1114 221.5 16.4842 221.5 13.5Z" fill="#C5C5C9"/>
</svg>
