<svg width="154" height="34" viewBox="0 0 154 34" fill="none" xmlns="http://www.w3.org/2000/svg">
<path d="M0 17C0 7.61116 7.61116 0 17 0V0C26.3888 0 34 7.61116 34 17V17C34 26.3888 26.3888 34 17 34H0V17Z" fill="url(#paint0_linear_548_5438)"/>
<path d="M0 17C0 7.61116 7.61116 0 17 0V17H34C34 26.3888 26.3888 34 17 34V17H0Z" fill="#FDCD49"/>
<path fill-rule="evenodd" clip-rule="evenodd" d="M26.6404 12.0479L24.1143 9.53833L14.1903 19.3972L9.81034 15.046L7.28418 17.5556L11.6641 21.9068L11.6639 21.907L14.19 24.4166L14.1903 24.4164L14.1906 24.4167L16.7167 21.9071L16.7165 21.9068L26.6404 12.0479Z" fill="#071121"/>
<path d="M42 7.96509H47.9739C49.3728 7.96509 50.6317 8.17903 51.7508 8.60691C52.8699 9.0348 53.8244 9.64371 54.6144 10.4336C55.4043 11.2071 56.005 12.137 56.4164 13.2231C56.8443 14.3093 57.0582 15.5024 57.0582 16.8025C57.0582 18.1191 56.8443 19.3205 56.4164 20.4066C56.005 21.4928 55.4043 22.4226 54.6144 23.1961C53.8244 23.9696 52.8699 24.5703 51.7508 24.9982C50.6317 25.426 49.3728 25.64 47.9739 25.64H42V7.96509ZM47.8258 22.4802C48.7968 22.4802 49.6525 22.3486 50.3931 22.0853C51.1337 21.8055 51.7508 21.4188 52.2445 20.925C52.7382 20.4313 53.1085 19.8389 53.3554 19.1477C53.6022 18.44 53.7257 17.6583 53.7257 16.8025C53.7257 15.9468 53.6022 15.1733 53.3554 14.4821C53.1085 13.7744 52.7382 13.1738 52.2445 12.68C51.7508 12.1863 51.1337 11.8078 50.3931 11.5445C49.6525 11.2647 48.7968 11.1248 47.8258 11.1248H45.3326V22.4802H47.8258Z" fill="white"/>
<path d="M64.7133 13.1491C65.6513 13.1491 66.5071 13.3136 67.2806 13.6428C68.0705 13.9555 68.7453 14.3998 69.3048 14.9758C69.8808 15.5353 70.3251 16.2101 70.6378 17C70.967 17.79 71.1315 18.654 71.1315 19.592C71.1315 20.5301 70.967 21.3941 70.6378 22.184C70.3251 22.9739 69.8808 23.6569 69.3048 24.2329C68.7453 24.7925 68.0705 25.2368 67.2806 25.5659C66.5071 25.8786 65.6513 26.035 64.7133 26.035C63.7752 26.035 62.9112 25.8786 62.1213 25.5659C61.3478 25.2368 60.6731 24.7925 60.0971 24.2329C59.5375 23.6569 59.0932 22.9739 58.764 22.184C58.4514 21.3941 58.295 20.5301 58.295 19.592C58.295 18.654 58.4514 17.79 58.764 17C59.0932 16.2101 59.5375 15.5353 60.0971 14.9758C60.6731 14.3998 61.3478 13.9555 62.1213 13.6428C62.9112 13.3136 63.7752 13.1491 64.7133 13.1491ZM64.7133 23.048C65.1247 23.048 65.5197 22.9739 65.8982 22.8258C66.2932 22.6613 66.6388 22.4309 66.935 22.1346C67.2312 21.8384 67.4616 21.4764 67.6262 21.0485C67.8072 20.6206 67.8977 20.1351 67.8977 19.592C67.8977 19.0489 67.8072 18.5634 67.6262 18.1356C67.4616 17.7077 67.2312 17.3456 66.935 17.0494C66.6388 16.7532 66.2932 16.531 65.8982 16.3829C65.5197 16.2183 65.1247 16.136 64.7133 16.136C64.2854 16.136 63.8822 16.2183 63.5037 16.3829C63.1252 16.531 62.7878 16.7532 62.4916 17.0494C62.1953 17.3456 61.9567 17.7077 61.7757 18.1356C61.6111 18.5634 61.5288 19.0489 61.5288 19.592C61.5288 20.1351 61.6111 20.6206 61.7757 21.0485C61.9567 21.4764 62.1953 21.8384 62.4916 22.1346C62.7878 22.4309 63.1252 22.6613 63.5037 22.8258C63.8822 22.9739 64.2854 23.048 64.7133 23.048Z" fill="white"/>
<path d="M76.0046 15.1239H76.2021C76.5806 14.515 77.0908 14.0377 77.7326 13.6922C78.3745 13.3301 79.1068 13.1491 79.9296 13.1491C80.6867 13.1491 81.3532 13.2725 81.9292 13.5194C82.5052 13.7662 82.9742 14.12 83.3363 14.5808C83.7148 15.0252 83.9945 15.5683 84.1756 16.2101C84.3731 16.8355 84.4718 17.5349 84.4718 18.3084V25.64H81.238V18.7033C81.238 17.8311 81.0405 17.1893 80.6455 16.7779C80.267 16.35 79.7075 16.136 78.9669 16.136C78.5226 16.136 78.1276 16.2348 77.782 16.4323C77.4529 16.6133 77.1649 16.8684 76.918 17.1975C76.6876 17.5102 76.5066 17.8887 76.3749 18.333C76.2597 18.7609 76.2021 19.2217 76.2021 19.7154V25.64H72.9683V13.544H76.0046V15.1239Z" fill="white"/>
<path d="M98.5974 22.7271C98.0378 23.7145 97.2808 24.5127 96.3263 25.1216C95.3882 25.7305 94.2362 26.035 92.8703 26.035C91.9487 26.035 91.0929 25.8786 90.303 25.5659C89.5295 25.2368 88.8548 24.7842 88.2788 24.2082C87.7028 23.6322 87.2502 22.9575 86.9211 22.184C86.6084 21.3941 86.4521 20.5301 86.4521 19.592C86.4521 18.7198 86.6084 17.8969 86.9211 17.1235C87.2338 16.3335 87.6699 15.6505 88.2294 15.0745C88.789 14.4821 89.4472 14.0131 90.2043 13.6675C90.9777 13.3219 91.8253 13.1491 92.7469 13.1491C93.7178 13.1491 94.5818 13.3136 95.3389 13.6428C96.0959 13.9555 96.7295 14.3998 97.2397 14.9758C97.7498 15.5353 98.1366 16.2019 98.3999 16.9753C98.6632 17.7488 98.7949 18.5881 98.7949 19.4933C98.7949 19.6085 98.7949 19.7072 98.7949 19.7895C98.7784 19.8882 98.7702 19.9788 98.7702 20.061C98.7537 20.1433 98.7455 20.2338 98.7455 20.3326H89.6365C89.7023 20.8263 89.834 21.2542 90.0315 21.6162C90.2454 21.9618 90.5005 22.2581 90.7967 22.5049C91.1094 22.7353 91.4468 22.9081 91.8088 23.0233C92.1709 23.1221 92.5412 23.1714 92.9197 23.1714C93.6602 23.1714 94.2692 23.0069 94.7464 22.6777C95.2401 22.3321 95.6269 21.9042 95.9066 21.3941L98.5974 22.7271ZM95.6598 18.0368C95.6433 17.8229 95.5693 17.5843 95.4376 17.3209C95.3224 17.0576 95.1414 16.8108 94.8945 16.5804C94.6641 16.35 94.3679 16.1607 94.0059 16.0126C93.6603 15.8645 93.2406 15.7904 92.7469 15.7904C92.0557 15.7904 91.4468 15.9879 90.9201 16.3829C90.3935 16.7779 90.0232 17.3292 89.8093 18.0368H95.6598Z" fill="white"/>
<path d="M101.255 7.96509H105.131L112.24 19.8142H112.438L112.24 16.4076V7.96509H115.548V25.64H112.043L104.538 13.1244H104.341L104.538 16.531V25.64H101.255V7.96509Z" fill="white"/>
<path d="M124.426 13.1491C125.364 13.1491 126.22 13.3136 126.994 13.6428C127.784 13.9555 128.458 14.3998 129.018 14.9758C129.594 15.5353 130.038 16.2101 130.351 17C130.68 17.79 130.845 18.654 130.845 19.592C130.845 20.5301 130.68 21.3941 130.351 22.184C130.038 22.9739 129.594 23.6569 129.018 24.2329C128.458 24.7925 127.784 25.2368 126.994 25.5659C126.22 25.8786 125.364 26.035 124.426 26.035C123.488 26.035 122.624 25.8786 121.834 25.5659C121.061 25.2368 120.386 24.7925 119.81 24.2329C119.251 23.6569 118.806 22.9739 118.477 22.184C118.165 21.3941 118.008 20.5301 118.008 19.592C118.008 18.654 118.165 17.79 118.477 17C118.806 16.2101 119.251 15.5353 119.81 14.9758C120.386 14.3998 121.061 13.9555 121.834 13.6428C122.624 13.3136 123.488 13.1491 124.426 13.1491ZM124.426 23.048C124.838 23.048 125.233 22.9739 125.611 22.8258C126.006 22.6613 126.352 22.4309 126.648 22.1346C126.944 21.8384 127.175 21.4764 127.339 21.0485C127.52 20.6206 127.611 20.1351 127.611 19.592C127.611 19.0489 127.52 18.5634 127.339 18.1356C127.175 17.7077 126.944 17.3456 126.648 17.0494C126.352 16.7532 126.006 16.531 125.611 16.3829C125.233 16.2183 124.838 16.136 124.426 16.136C123.999 16.136 123.595 16.2183 123.217 16.3829C122.838 16.531 122.501 16.7532 122.205 17.0494C121.909 17.3456 121.67 17.7077 121.489 18.1356C121.324 18.5634 121.242 19.0489 121.242 19.592C121.242 20.1351 121.324 20.6206 121.489 21.0485C121.67 21.4764 121.909 21.8384 122.205 22.1346C122.501 22.4309 122.838 22.6613 123.217 22.8258C123.595 22.9739 123.999 23.048 124.426 23.048Z" fill="white"/>
<path d="M133.894 16.3088H131.771V13.544H133.894V9.84119H137.128V13.544H140.09V16.3088H137.128V20.9991C137.128 21.2789 137.152 21.5422 137.202 21.789C137.268 22.0194 137.383 22.2169 137.547 22.3815C137.778 22.6448 138.107 22.7765 138.535 22.7765C138.815 22.7765 139.037 22.7518 139.201 22.7024C139.366 22.6366 139.522 22.5543 139.67 22.4555L140.584 25.2944C140.205 25.4754 139.794 25.6071 139.349 25.6894C138.922 25.7881 138.444 25.8375 137.918 25.8375C137.309 25.8375 136.757 25.747 136.264 25.5659C135.787 25.3685 135.383 25.1051 135.054 24.776C134.281 24.0354 133.894 22.9822 133.894 21.6162V16.3088Z" fill="white"/>
<path d="M153.803 22.7271C153.243 23.7145 152.486 24.5127 151.531 25.1216C150.593 25.7305 149.441 26.035 148.075 26.035C147.154 26.035 146.298 25.8786 145.508 25.5659C144.735 25.2368 144.06 24.7842 143.484 24.2082C142.908 23.6322 142.455 22.9575 142.126 22.184C141.814 21.3941 141.657 20.5301 141.657 19.592C141.657 18.7198 141.814 17.8969 142.126 17.1235C142.439 16.3335 142.875 15.6505 143.435 15.0745C143.994 14.4821 144.652 14.0131 145.409 13.6675C146.183 13.3219 147.03 13.1491 147.952 13.1491C148.923 13.1491 149.787 13.3136 150.544 13.6428C151.301 13.9555 151.935 14.3998 152.445 14.9758C152.955 15.5353 153.342 16.2019 153.605 16.9753C153.868 17.7488 154 18.5881 154 19.4933C154 19.6085 154 19.7072 154 19.7895C153.984 19.8882 153.975 19.9788 153.975 20.061C153.959 20.1433 153.951 20.2338 153.951 20.3326H144.842C144.907 20.8263 145.039 21.2542 145.237 21.6162C145.451 21.9618 145.706 22.2581 146.002 22.5049C146.315 22.7353 146.652 22.9081 147.014 23.0233C147.376 23.1221 147.746 23.1714 148.125 23.1714C148.865 23.1714 149.474 23.0069 149.952 22.6777C150.445 22.3321 150.832 21.9042 151.112 21.3941L153.803 22.7271ZM150.865 18.0368C150.848 17.8229 150.774 17.5843 150.643 17.3209C150.528 17.0576 150.347 16.8108 150.1 16.5804C149.869 16.35 149.573 16.1607 149.211 16.0126C148.865 15.8645 148.446 15.7904 147.952 15.7904C147.261 15.7904 146.652 15.9879 146.125 16.3829C145.599 16.7779 145.228 17.3292 145.014 18.0368H150.865Z" fill="white"/>
<defs>
<linearGradient id="paint0_linear_548_5438" x1="34" y1="1.01328e-06" x2="-1.01328e-06" y2="34" gradientUnits="userSpaceOnUse">
<stop stop-color="#FFD21E"/>
<stop offset="1" stop-color="#FDAF28"/>
</linearGradient>
</defs>
</svg>
