<svg width="690" height="685" viewBox="0 0 690 685" fill="none" xmlns="http://www.w3.org/2000/svg">
<path d="M293.803 29.3286C316.76 -9.77621 373.24 -9.77622 396.197 29.3286C412.078 56.3818 446.226 66.4201 474.195 52.2577C514.625 31.7862 562.139 62.3576 560.334 107.68C559.086 139.035 582.392 165.963 613.569 169.188C658.635 173.849 682.098 225.286 656.105 262.437C638.122 288.138 643.187 323.406 667.674 342.994C703.068 371.309 695.03 427.28 653.101 444.464C624.095 456.352 609.31 488.763 619.332 518.495C633.818 561.473 596.831 604.208 552.278 595.969C521.456 590.269 491.517 609.533 483.892 639.97C472.869 683.966 418.677 699.897 385.646 668.851C362.795 647.373 327.205 647.373 304.354 668.851C271.324 699.897 217.131 683.966 206.108 639.97C198.483 609.533 168.544 590.269 137.722 595.969C93.1694 604.208 56.1824 561.473 70.6682 518.495C80.6897 488.763 65.9054 456.352 36.8986 444.464C-5.03028 427.28 -13.0683 371.309 22.3264 342.994C46.8129 323.406 51.8778 288.138 33.8954 262.437C7.90219 225.286 31.3652 173.849 76.4313 169.188C107.608 165.963 130.914 139.035 129.666 107.68C127.861 62.3576 175.375 31.7862 215.805 52.2577C243.774 66.4201 277.922 56.3818 293.803 29.3286Z" fill="white"/>
</svg>
