<svg width="252" height="40" viewBox="0 0 252 40" fill="none" xmlns="http://www.w3.org/2000/svg">
<path fill-rule="evenodd" clip-rule="evenodd" d="M36.1219 9.16201V15.6425L24.9487 26.8156V14.5251L21.5967 11.1732L0.367677 11.1732L0.367677 0L26.9599 1.70489e-06L36.1219 9.16201ZM0.367676 30.838L0.367677 24.3575L11.5409 13.1844L11.5409 25.4749L14.8928 28.8268H36.1219V40H9.52969L4.94868 35.419L0.367676 30.838Z" fill="#5BD473"/>
<path fill-rule="evenodd" clip-rule="evenodd" d="M191.216 31.6191C192.658 32.5433 194.274 33.0053 196.066 33.0053C197.325 33.0053 198.389 32.7953 199.256 32.3752C200.138 31.9552 200.859 31.4301 201.419 30.8C201.978 30.1559 202.405 29.5118 202.699 28.8677H202.993V32.6273H209.396V1.33252H202.888V13.1153H202.699C202.419 12.4712 202.006 11.8201 201.461 11.162C200.915 10.5039 200.201 9.95783 199.319 9.52376C198.438 9.0757 197.339 8.85166 196.024 8.85166C194.316 8.85166 192.742 9.29973 191.3 10.1959C189.859 11.078 188.704 12.4152 187.837 14.2075C186.969 15.9997 186.535 18.2401 186.535 20.9285C186.535 23.5329 186.955 25.7382 187.795 27.5445C188.634 29.3368 189.775 30.695 191.216 31.6191ZM200.768 26.9774C200.04 27.5515 199.151 27.8385 198.102 27.8385C197.052 27.8385 196.157 27.5445 195.415 26.9564C194.687 26.3683 194.134 25.5562 193.756 24.52C193.379 23.4699 193.19 22.2657 193.19 20.9075C193.19 19.5493 193.379 18.3591 193.756 17.337C194.134 16.3008 194.687 15.4887 195.415 14.9006C196.143 14.3125 197.038 14.0184 198.102 14.0184C199.151 14.0184 200.047 14.3055 200.789 14.8796C201.531 15.4397 202.09 16.2378 202.468 17.2739C202.846 18.2961 203.035 19.5073 203.035 20.9075C203.035 22.2937 202.839 23.5049 202.447 24.541C202.069 25.5772 201.51 26.3893 200.768 26.9774ZM107.31 9.96483C106.302 10.7069 105.582 11.8061 105.148 13.2623H104.896V9.14571H98.6191V32.6273H105.106V19.3533C105.106 18.4011 105.316 17.561 105.735 16.8329C106.169 16.0908 106.764 15.5167 107.52 15.1106C108.276 14.6905 109.122 14.4805 110.06 14.4805C110.522 14.4805 111.019 14.5155 111.55 14.5855C112.096 14.6415 112.523 14.7186 112.831 14.8166V9.06169C112.537 8.97768 112.201 8.92167 111.823 8.89367C111.459 8.85166 111.11 8.83066 110.774 8.83066C109.472 8.83066 108.318 9.20872 107.31 9.96483ZM85.079 33.0893C82.6719 33.0893 80.5937 32.5993 78.8443 31.6191C77.0949 30.639 75.7514 29.2458 74.8138 27.4395C73.8901 25.6192 73.4283 23.4699 73.4283 20.9915C73.4283 18.5831 73.8901 16.4688 74.8138 14.6485C75.7514 12.8283 77.0669 11.4071 78.7603 10.3849C80.4677 9.36274 82.469 8.85166 84.7641 8.85166C86.3176 8.85166 87.766 9.1037 89.1096 9.60778C90.4531 10.0979 91.6286 10.84 92.6363 11.8341C93.6439 12.8143 94.4276 14.0535 94.9874 15.5517C95.5472 17.0359 95.8271 18.7792 95.8271 20.7815V22.5457H79.8377C79.8781 23.6592 80.0998 24.6254 80.5027 25.4442C80.9505 26.3403 81.5733 27.0334 82.371 27.5235C83.1827 27.9996 84.1134 28.2376 85.163 28.2376C85.8907 28.2376 86.5485 28.1326 87.1363 27.9226C87.7241 27.7125 88.2279 27.4045 88.6477 26.9984C89.0816 26.5924 89.4034 26.1023 89.6134 25.5282L95.6172 25.9273C95.3233 27.3695 94.7075 28.6297 93.7699 29.7078C92.8462 30.772 91.6496 31.6051 90.1802 32.2072C88.7107 32.7953 87.0103 33.0893 85.079 33.0893ZM80.4187 16.4338C80.1252 17.0632 79.9416 17.7633 79.8679 18.5341H89.6042C89.5269 17.7739 89.362 17.0878 89.1096 16.4758C88.7457 15.5937 88.1999 14.9146 87.4721 14.4385C86.7584 13.9484 85.8697 13.7034 84.8061 13.7034C83.7425 13.7034 82.8398 13.9484 82.0981 14.4385C81.3704 14.9286 80.8106 15.5937 80.4187 16.4338ZM71.0561 13.4094L60.2871 27.2505V27.4185H71.455V32.6273H51.7642V28.7417L63.247 14.5225V14.3545H52.142V9.14571H71.0561V13.4094ZM124.251 33.0893C121.886 33.0893 119.835 32.5853 118.1 31.5771C116.379 30.555 115.049 29.1407 114.111 27.3345C113.188 25.5142 112.726 23.3999 112.726 20.9915C112.726 18.5551 113.188 16.4338 114.111 14.6275C115.049 12.8073 116.379 11.393 118.1 10.3849C119.835 9.36274 121.886 8.85166 124.251 8.85166C126.63 8.85166 128.68 9.36274 130.402 10.3849C132.137 11.393 133.466 12.8073 134.39 14.6275C135.328 16.4338 135.797 18.5551 135.797 20.9915C135.797 23.3999 135.328 25.5142 134.39 27.3345C133.466 29.1407 132.137 30.555 130.402 31.5771C128.68 32.5853 126.63 33.0893 124.251 33.0893ZM124.293 28.0066C125.37 28.0066 126.273 27.7055 127.001 27.1034C127.728 26.4873 128.274 25.6472 128.638 24.5831C129.016 23.5189 129.205 22.3077 129.205 20.9495C129.205 19.5773 129.016 18.3661 128.638 17.3159C128.274 16.2658 127.728 15.4397 127.001 14.8376C126.273 14.2355 125.37 13.9344 124.293 13.9344C123.201 13.9344 122.284 14.2355 121.543 14.8376C120.815 15.4397 120.262 16.2658 119.884 17.3159C119.52 18.3661 119.339 19.5773 119.339 20.9495C119.339 22.3077 119.52 23.5189 119.884 24.5831C120.262 25.6472 120.815 26.4873 121.543 27.1034C122.284 27.7055 123.201 28.0066 124.293 28.0066ZM143.06 31.5561C144.781 32.5783 146.839 33.0893 149.232 33.0893C151.331 33.0893 153.143 32.7113 154.669 31.9552C156.194 31.1851 157.391 30.1209 158.258 28.7627C159.126 27.3905 159.609 25.8082 159.707 24.016H153.577C153.395 25.2622 152.919 26.2423 152.15 26.9564C151.38 27.6565 150.435 28.0066 149.316 28.0066C148.308 28.0066 147.426 27.7265 146.671 27.1664C145.929 26.6064 145.348 25.7942 144.928 24.7301C144.522 23.6659 144.319 22.3917 144.319 20.9075C144.319 19.4233 144.522 18.1631 144.928 17.1269C145.348 16.0768 145.929 15.2856 146.671 14.7536C147.426 14.2075 148.308 13.9344 149.316 13.9344C150.113 13.9344 150.813 14.0955 151.415 14.4175C152.017 14.7396 152.499 15.1946 152.863 15.7827C153.227 16.3708 153.465 17.0569 153.577 17.841H159.707C159.623 16.0208 159.133 14.4385 158.237 13.0943C157.342 11.7501 156.124 10.7069 154.585 9.96483C153.059 9.22272 151.275 8.85166 149.232 8.85166C146.853 8.85166 144.802 9.36274 143.081 10.3849C141.36 11.4071 140.03 12.8283 139.092 14.6485C138.169 16.4688 137.707 18.5831 137.707 20.9915C137.707 23.3719 138.169 25.4722 139.092 27.2925C140.016 29.0987 141.339 30.52 143.06 31.5561ZM173.079 33.0893C170.714 33.0893 168.664 32.5853 166.928 31.5771C165.207 30.555 163.877 29.1407 162.94 27.3345C162.016 25.5142 161.554 23.3999 161.554 20.9915C161.554 18.5551 162.016 16.4338 162.94 14.6275C163.877 12.8073 165.207 11.393 166.928 10.3849C168.664 9.36274 170.714 8.85166 173.079 8.85166C175.458 8.85166 177.508 9.36274 179.23 10.3849C180.965 11.393 182.295 12.8073 183.218 14.6275C184.156 16.4338 184.625 18.5551 184.625 20.9915C184.625 23.3999 184.156 25.5142 183.218 27.3345C182.295 29.1407 180.965 30.555 179.23 31.5771C177.508 32.5853 175.458 33.0893 173.079 33.0893ZM173.121 28.0066C174.199 28.0066 175.101 27.7055 175.829 27.1034C176.557 26.4873 177.102 25.6472 177.466 24.5831C177.844 23.5189 178.033 22.3077 178.033 20.9495C178.033 19.5773 177.844 18.3661 177.466 17.3159C177.102 16.2658 176.557 15.4397 175.829 14.8376C175.101 14.2355 174.199 13.9344 173.121 13.9344C172.029 13.9344 171.113 14.2355 170.371 14.8376C169.643 15.4397 169.09 16.2658 168.713 17.3159C168.349 18.3661 168.167 19.5773 168.167 20.9495C168.167 22.3077 168.349 23.5189 168.713 24.5831C169.09 25.6472 169.643 26.4873 170.371 27.1034C171.113 27.7055 172.029 28.0066 173.121 28.0066ZM223.88 33.0893C221.473 33.0893 219.395 32.5993 217.646 31.6191C215.896 30.639 214.553 29.2458 213.615 27.4395C212.692 25.6192 212.23 23.4699 212.23 20.9915C212.23 18.5831 212.692 16.4688 213.615 14.6485C214.553 12.8283 215.868 11.4071 217.562 10.3849C219.269 9.36274 221.27 8.85166 223.566 8.85166C225.119 8.85166 226.567 9.1037 227.911 9.60778C229.254 10.0979 230.43 10.84 231.438 11.8341C232.445 12.8143 233.229 14.0535 233.789 15.5517C234.349 17.0359 234.629 18.7792 234.629 20.7815V22.5457H218.639C218.68 23.6592 218.901 24.6254 219.304 25.4442C219.752 26.3403 220.375 27.0334 221.172 27.5235C221.984 27.9996 222.915 28.2376 223.964 28.2376C224.692 28.2376 225.35 28.1326 225.938 27.9226C226.525 27.7125 227.029 27.4045 227.449 26.9984C227.883 26.5924 228.205 26.1023 228.415 25.5282L234.419 25.9273C234.125 27.3695 233.509 28.6297 232.571 29.7078C231.648 30.772 230.451 31.6051 228.982 32.2072C227.512 32.7953 225.812 33.0893 223.88 33.0893ZM219.22 16.4338C218.927 17.0632 218.743 17.7633 218.669 18.5341H228.406C228.328 17.7739 228.163 17.0878 227.911 16.4758C227.547 15.5937 227.001 14.9146 226.274 14.4385C225.56 13.9484 224.671 13.7034 223.608 13.7034C222.544 13.7034 221.641 13.9484 220.9 14.4385C220.172 14.9286 219.612 15.5937 219.22 16.4338ZM246.111 9.96483C245.104 10.7069 244.383 11.8061 243.949 13.2623H243.697V9.14571H237.421V32.6273H243.907V19.3533C243.907 18.4011 244.117 17.561 244.537 16.8329C244.971 16.0908 245.566 15.5167 246.321 15.1106C247.077 14.6905 247.924 14.4805 248.861 14.4805C249.323 14.4805 249.82 14.5155 250.352 14.5855C250.898 14.6415 251.324 14.7186 251.632 14.8166V9.06169C251.338 8.97768 251.003 8.92167 250.625 8.89367C250.261 8.85166 249.911 8.83066 249.575 8.83066C248.274 8.83066 247.119 9.20872 246.111 9.96483Z" fill="#062037"/>
</svg>
