<svg width="178" height="40" viewBox="0 0 178 40" fill="none" xmlns="http://www.w3.org/2000/svg">
<path d="M45.4449 0.236694H0.00585938V36.8747C0.00585938 38.5977 1.39295 39.9984 3.10588 39.9984H42.3478C44.0578 39.9984 45.4479 38.6008 45.4479 36.8747L45.4449 0.236694Z" fill="#F1F3F4"/>
<path d="M45.4449 0H0.00585938V19.8347H45.4449V0Z" fill="#E8EAED"/>
<path d="M27.8882 8.47206H17.5628C16.4208 8.47206 15.4971 7.54833 15.4971 6.40638C15.4971 5.26443 16.4208 4.3407 17.5628 4.3407H27.8882C29.0301 4.3407 29.9538 5.26443 29.9538 6.40638C29.9538 7.54534 29.0301 8.47206 27.8882 8.47206Z" fill="white"/>
<path fill-rule="evenodd" clip-rule="evenodd" d="M15.2746 39.9999L22.7255 27.0886L39.7172 27.0856C36.3242 21.2204 29.9867 17.2773 22.7255 17.2773C15.4643 17.2773 9.12683 21.2204 5.73389 27.0856L8.43928 35.3393L12.615 39.9999H15.2746Z" fill="url(#paint0_linear_513_5694)"/>
<path fill-rule="evenodd" clip-rule="evenodd" d="M13.1863 39.9999L5.73271 27.0856C3.50079 30.9615 2.63413 35.5317 3.34773 39.9999H13.1863Z" fill="url(#paint1_linear_513_5694)"/>
<path fill-rule="evenodd" clip-rule="evenodd" d="M42.102 39.9999C42.8154 35.5328 41.9487 30.9642 39.7169 27.0886H22.7251L30.1786 39.9999H42.102Z" fill="url(#paint2_linear_513_5694)"/>
<path fill-rule="evenodd" clip-rule="evenodd" d="M32.0334 39.9999C32.3576 39.0255 32.5331 37.9832 32.5331 36.8999C32.5331 31.4813 28.1418 27.0886 22.7248 27.0886C17.3078 27.0886 12.9165 31.4813 12.9165 36.8999C12.9165 37.9832 13.092 39.0255 13.4162 39.9999H32.0334Z" fill="#F1F3F4"/>
<path fill-rule="evenodd" clip-rule="evenodd" d="M30.0696 39.9998C30.472 39.0469 30.6945 37.9993 30.6945 36.8998C30.6945 32.4966 27.1263 28.9271 22.7247 28.9271C18.3231 28.9271 14.7549 32.4966 14.7549 36.8998C14.7549 37.9993 14.9774 39.0469 15.3798 39.9998H30.0696Z" fill="#1A73E8"/>
<g clip-path="url(#clip0_513_5694)">
<path d="M110.059 20.513C110.059 26.0652 105.715 30.1565 100.385 30.1565C95.0544 30.1565 90.7109 26.0652 90.7109 20.513C90.7109 14.9217 95.0544 10.8695 100.385 10.8695C105.715 10.8695 110.059 14.9217 110.059 20.513ZM105.824 20.513C105.824 17.0434 103.307 14.6695 100.385 14.6695C97.4631 14.6695 94.9457 17.0434 94.9457 20.513C94.9457 23.9478 97.4631 26.3565 100.385 26.3565C103.307 26.3565 105.824 23.9434 105.824 20.513Z" fill="#EA4335"/>
<path d="M130.928 20.513C130.928 26.0652 126.585 30.1565 121.254 30.1565C115.924 30.1565 111.581 26.0652 111.581 20.513C111.581 14.926 115.924 10.8695 121.254 10.8695C126.585 10.8695 130.928 14.9217 130.928 20.513ZM126.694 20.513C126.694 17.0434 124.176 14.6695 121.254 14.6695C118.333 14.6695 115.815 17.0434 115.815 20.513C115.815 23.9478 118.333 26.3565 121.254 26.3565C124.176 26.3565 126.694 23.9434 126.694 20.513Z" fill="#FBBC05"/>
<path d="M150.928 11.4521V28.7652C150.928 35.8869 146.728 38.7956 141.763 38.7956C137.089 38.7956 134.276 35.6695 133.215 33.113L136.902 31.5782C137.559 33.1478 139.167 34.9999 141.759 34.9999C144.937 34.9999 146.907 33.0391 146.907 29.3478V27.9608H146.759C145.811 29.1304 143.985 30.1521 141.681 30.1521C136.859 30.1521 132.441 25.9521 132.441 20.5478C132.441 15.1043 136.859 10.8695 141.681 10.8695C143.981 10.8695 145.807 11.8912 146.759 13.026H146.907V11.4565H150.928V11.4521ZM147.207 20.5478C147.207 17.1521 144.941 14.6695 142.059 14.6695C139.137 14.6695 136.689 17.1521 136.689 20.5478C136.689 23.9086 139.137 26.3565 142.059 26.3565C144.941 26.3565 147.207 23.9086 147.207 20.5478Z" fill="#4285F4"/>
<path d="M157.559 1.30432V29.5652H153.429V1.30432H157.559Z" fill="#34A853"/>
<path d="M173.655 23.687L176.942 25.8783C175.881 27.4478 173.324 30.1522 168.907 30.1522C163.429 30.1522 159.337 25.9174 159.337 20.5087C159.337 14.7739 163.463 10.8652 168.433 10.8652C173.437 10.8652 175.885 14.8478 176.685 17L177.124 18.0957L164.233 23.4348C165.22 25.3696 166.755 26.3565 168.907 26.3565C171.063 26.3565 172.559 25.2957 173.655 23.687ZM163.537 20.2174L172.155 16.6391C171.681 15.4348 170.255 14.5957 168.577 14.5957C166.424 14.5957 163.429 16.4957 163.537 20.2174V20.2174Z" fill="#EA4335"/>
<path d="M75.0766 18.0043V13.913H88.8636C88.9983 14.6261 89.0679 15.4696 89.0679 16.3826C89.0679 19.4522 88.2288 23.2478 85.5244 25.9522C82.894 28.6913 79.5331 30.1522 75.0809 30.1522C66.8288 30.1522 59.8896 23.4304 59.8896 15.1783C59.8896 6.92608 66.8288 0.204346 75.0809 0.204346C79.6462 0.204346 82.8983 1.99565 85.3418 4.33043L82.4549 7.21739C80.7027 5.57391 78.3288 4.29565 75.0766 4.29565C69.0505 4.29565 64.3375 9.15217 64.3375 15.1783C64.3375 21.2043 69.0505 26.0609 75.0766 26.0609C78.9853 26.0609 81.2114 24.4913 82.6375 23.0652C83.794 21.9087 84.5549 20.2565 84.8549 18L75.0766 18.0043V18.0043Z" fill="#4285F4"/>
</g>
<defs>
<linearGradient id="paint0_linear_513_5694" x1="5.73389" y1="29.5414" x2="39.7175" y2="29.5414" gradientUnits="userSpaceOnUse">
<stop stop-color="#D93025"/>
<stop offset="1" stop-color="#EA4335"/>
</linearGradient>
<linearGradient id="paint1_linear_513_5694" x1="24.8498" y1="55.2966" x2="7.85441" y2="25.8607" gradientUnits="userSpaceOnUse">
<stop stop-color="#1E8E3E"/>
<stop offset="1" stop-color="#34A853"/>
</linearGradient>
<linearGradient id="paint2_linear_513_5694" x1="36.907" y1="27.0491" x2="19.9122" y2="56.484" gradientUnits="userSpaceOnUse">
<stop stop-color="#FBBC04"/>
<stop offset="1" stop-color="#FCC934"/>
</linearGradient>
<clipPath id="clip0_513_5694">
<rect width="118.261" height="40" fill="white" transform="translate(59.7329)"/>
</clipPath>
</defs>
</svg>
