<svg width="192" height="40" viewBox="0 0 192 40" fill="none" xmlns="http://www.w3.org/2000/svg">
<g clip-path="url(#clip0_513_5630)">
<path fill-rule="evenodd" clip-rule="evenodd" d="M46.6674 39.5108V0.0253906H37.5432V39.5108H46.6674ZM2.28853 16.5132C1.15021 18.8254 0.581055 21.5111 0.581055 24.5703C0.581055 27.6296 1.15021 30.3331 2.28853 32.6808C3.46242 34.9929 5.04538 36.7893 7.03745 38.07C9.0295 39.315 11.235 39.9377 13.6539 39.9377C15.7527 39.9377 17.5846 39.5108 19.1498 38.6569C20.7506 37.8031 21.9956 36.6827 22.8849 35.2953V39.5108H32.0093V9.73664H22.8849V13.952C22.0312 12.5646 20.804 11.4441 19.2032 10.5904C17.638 9.73664 15.806 9.30978 13.7073 9.30978C11.2528 9.30978 9.0295 9.93228 7.03745 11.1773C5.04538 12.4224 3.46242 14.201 2.28853 16.5132ZM20.964 19.2345C22.2446 20.5506 22.8849 22.347 22.8849 24.6236C22.8849 26.9003 22.2446 28.6967 20.964 30.0129C19.719 31.3291 18.1894 31.9872 16.3752 31.9872C14.561 31.9872 13.0136 31.3291 11.733 30.0129C10.488 28.6612 9.86545 26.8469 9.86545 24.5703C9.86545 22.2937 10.488 20.5151 11.733 19.2345C13.0136 17.9183 14.561 17.2602 16.3752 17.2602C18.1894 17.2602 19.719 17.9183 20.964 19.2345ZM107.489 16.5132C106.35 18.8254 105.781 21.5111 105.781 24.5703C105.781 27.6296 106.35 30.3331 107.489 32.6808C108.662 34.9929 110.246 36.7893 112.237 38.07C114.23 39.315 116.435 39.9377 118.854 39.9377C120.953 39.9377 122.785 39.5108 124.35 38.6569C125.951 37.8031 127.196 36.6827 128.085 35.2953V39.5108H137.209V9.73664H128.085V13.952C127.231 12.5646 126.004 11.4441 124.403 10.5904C122.838 9.73664 121.006 9.30978 118.907 9.30978C116.453 9.30978 114.23 9.93228 112.237 11.1773C110.246 12.4224 108.662 14.201 107.489 16.5132ZM126.164 19.2345C127.445 20.5506 128.085 22.347 128.085 24.6236C128.085 26.9003 127.445 28.6967 126.164 30.0129C124.919 31.3291 123.39 31.9872 121.575 31.9872C119.761 31.9872 118.214 31.3291 116.933 30.0129C115.688 28.6612 115.066 26.8469 115.066 24.5703C115.066 22.2937 115.688 20.5151 116.933 19.2345C118.214 17.9183 119.761 17.2602 121.575 17.2602C123.39 17.2602 124.919 17.9183 126.164 19.2345ZM159.338 31.7736V39.5108H154.696C151.387 39.5108 148.808 38.7103 146.959 37.1096C145.109 35.4731 144.184 32.8231 144.184 29.1591V17.3135H140.556V9.73664H144.184V2.47988H153.308V9.73664H159.284V17.3135H153.308V29.2658C153.308 30.1553 153.522 30.7955 153.948 31.1867C154.375 31.5781 155.087 31.7736 156.083 31.7736H159.338ZM191.259 26.8115C191.366 25.8865 191.42 24.9972 191.42 24.1434C191.42 21.1554 190.779 18.5408 189.499 16.2997C188.254 14.0587 186.511 12.3334 184.27 11.124C182.028 9.9145 179.467 9.30978 176.586 9.30978C173.633 9.30978 171.019 9.93228 168.742 11.1773C166.466 12.4224 164.687 14.201 163.406 16.5132C162.161 18.8254 161.539 21.5289 161.539 24.6236C161.539 27.7184 162.179 30.4219 163.46 32.7341C164.74 35.0465 166.519 36.825 168.796 38.07C171.072 39.315 173.669 39.9377 176.586 39.9377C179.005 39.9377 181.193 39.4929 183.149 38.6036C185.106 37.7143 186.724 36.4869 188.005 34.9219C189.321 33.3567 190.228 31.5958 190.726 29.6393H181.015C180.125 31.5603 178.543 32.5208 176.266 32.5208C174.736 32.5208 173.438 32.0405 172.371 31.08C171.339 30.0841 170.752 28.6612 170.61 26.8115H191.259ZM180.481 18.0072C181.548 18.9321 182.082 20.1771 182.082 21.7423H170.663C170.912 20.106 171.553 18.8432 172.584 17.9539C173.651 17.0645 174.95 16.6199 176.479 16.6199C178.08 16.6199 179.414 17.0823 180.481 18.0072Z" fill="#071121"/>
<path fill-rule="evenodd" clip-rule="evenodd" d="M90.1687 9.31104C93.8682 9.31104 96.803 10.4316 98.9727 12.6726C101.178 14.9137 102.281 18.0263 102.281 22.0104V29.6871C101.169 28.434 99.5458 27.6443 97.7387 27.6443C95.9387 27.6443 94.3218 28.4276 93.2101 29.6716V23.2376C93.2101 21.3167 92.6942 19.8405 91.6627 18.8089C90.6665 17.7417 89.2794 17.2081 87.5006 17.2081C85.722 17.2081 84.317 17.7417 83.2853 18.8089C82.2894 19.8405 81.7913 21.3167 81.7913 23.2376V39.4052H72.7203V23.2376C72.7203 21.3167 72.2046 19.8405 71.173 18.8089C70.177 17.7417 68.7896 17.2081 67.0111 17.2081C65.2325 17.2081 63.8272 17.7417 62.7956 18.8089C61.7996 19.8405 61.3015 21.3167 61.3015 23.2376V39.4052H52.1772V9.6312H61.3015V13.3663C62.2265 12.1212 63.4361 11.143 64.9301 10.4316C66.4242 9.68456 68.1137 9.31104 69.9992 9.31104C72.2401 9.31104 74.2322 9.79127 75.9753 10.7517C77.7539 11.7122 79.1413 13.0817 80.1373 14.8603C81.1689 13.224 82.5739 11.89 84.3525 10.8584C86.1311 9.82684 88.0699 9.31104 90.1687 9.31104ZM102.281 39.4052V34.9178C102.281 32.4131 100.25 30.3824 97.7456 30.3824C95.2406 30.3824 93.2101 32.4131 93.2101 34.9178V39.4052H102.281Z" fill="url(#paint0_radial_513_5630)"/>
</g>
<defs>
<radialGradient id="paint0_radial_513_5630" cx="0" cy="0" r="1" gradientUnits="userSpaceOnUse" gradientTransform="translate(102.382 39.3109) rotate(-149.156) scale(58.5138 58.5138)">
<stop stop-color="#EA68FF"/>
<stop offset="1" stop-color="#0285FF"/>
</radialGradient>
<clipPath id="clip0_513_5630">
<rect width="190.952" height="40" fill="white" transform="translate(0.523926)"/>
</clipPath>
</defs>
</svg>
