<svg width="192" height="40" viewBox="0 0 192 40" fill="none" xmlns="http://www.w3.org/2000/svg">
<path fill-rule="evenodd" clip-rule="evenodd" d="M74.2961 6.53467L69.2357 7.43808V11.9944H66.686L66.6467 15.8437H69.2357V24.8778C69.2357 26.3442 69.5496 27.588 70.1772 28.6093C70.8048 29.6305 71.6678 30.4161 72.7662 30.966C73.8907 31.4897 75.2375 31.7515 76.8066 31.7515C77.2251 31.7515 77.6827 31.6861 78.1796 31.5552C78.6765 31.4504 79.1472 31.3064 79.5918 31.1231C80.0364 30.966 80.3894 30.7827 80.651 30.5732L79.1603 26.881C78.7942 27.0381 78.4411 27.1559 78.1012 27.2345C77.7612 27.3131 77.4212 27.3523 77.0812 27.3523C76.1659 27.3523 75.4729 27.0381 75.0022 26.4097C74.5314 25.7812 74.2961 24.9694 74.2961 23.9744V15.8437H79.3172L77.7481 11.9944H74.2961V6.53467ZM5.86032 17.8076C6.3049 17.4934 6.77563 17.153 7.27251 16.7864C7.76939 16.4198 8.29243 16.1187 8.84161 15.883C9.3908 15.6473 9.96613 15.5295 10.5676 15.5295C11.143 15.5295 11.6006 15.6735 11.9406 15.9615C12.2806 16.2496 12.529 16.6686 12.6859 17.2185C12.8428 17.7422 12.9213 18.423 12.9213 19.2609V30.966H18.0209V18.2397C18.0209 18.0855 18.0187 17.9338 18.0143 17.7845C18.4493 17.4767 18.9091 17.144 19.3938 16.7864C19.8907 16.4198 20.4137 16.1187 20.9629 15.883C21.5121 15.6473 22.0874 15.5295 22.6889 15.5295C23.2643 15.5295 23.7088 15.6735 24.0227 15.9615C24.3626 16.2496 24.6111 16.6686 24.768 17.2185C24.951 17.7422 25.0426 18.423 25.0426 19.2609V30.966H30.1422V18.2397C30.1422 16.7733 29.946 15.5295 29.5537 14.5082C29.1615 13.4608 28.5207 12.6621 27.6316 12.1122C26.7424 11.5623 25.5395 11.2874 24.0227 11.2874C23.4212 11.2874 22.7281 11.3921 21.9436 11.6016C21.1852 11.7849 20.3876 12.086 19.5507 12.505C18.7374 12.8867 17.9365 13.3426 17.1479 13.8728C16.7559 13.1318 16.21 12.545 15.5103 12.1122C14.6211 11.5623 13.4182 11.2874 11.9014 11.2874C11.326 11.2874 10.6461 11.3921 9.86153 11.6016C9.07698 11.7849 8.26627 12.086 7.42942 12.505C6.59257 12.8978 5.76879 13.3691 4.95809 13.919L4.09508 11.9158H0.760742V30.966H5.86032V17.8076ZM38.2022 25.2706C38.2022 24.5897 38.4375 23.9744 38.9083 23.4245C39.379 22.8746 40.0589 22.5996 40.9481 22.5996H44.7924V25.5062C44.1386 26.1347 43.4456 26.606 42.7133 26.9203C42.0073 27.2345 41.3012 27.3916 40.5951 27.3916C40.1243 27.3916 39.7059 27.3 39.3398 27.1167C38.9998 26.9072 38.7252 26.6453 38.516 26.3311C38.3068 25.9907 38.2022 25.6372 38.2022 25.2706ZM36.1624 17.3756C36.8684 17.0613 37.7445 16.7733 38.7906 16.5114C39.8367 16.2496 40.8043 16.1187 41.6934 16.1187C42.6349 16.1187 43.3671 16.3936 43.8902 16.9435C44.4394 17.4672 44.727 18.2004 44.7532 19.1431V19.1824H41.0266C38.8821 19.2086 37.143 19.7454 35.8093 20.7928C34.4756 21.8141 33.8087 23.3066 33.8087 25.2706C33.8087 27.1036 34.371 28.5962 35.4955 29.7483C36.62 30.8743 38.346 31.4373 40.6735 31.4373C41.615 31.4373 42.5041 31.2016 43.341 30.7303C44.204 30.259 44.9885 29.6567 45.6946 28.9235L46.5576 30.966H49.892V18.4361C49.892 17.0744 49.5128 15.8699 48.7544 14.8225C48.0221 13.7488 47.0284 12.9109 45.7731 12.3086C44.5178 11.7064 43.1318 11.4052 41.615 11.4052C41.0919 11.4052 40.3728 11.4838 39.4575 11.6409C38.5683 11.798 37.6922 12.0075 36.8292 12.2693C35.9662 12.505 35.2863 12.7931 34.7894 13.1335L36.1624 17.3756ZM56.7148 11.9158L58.4016 15.0974C58.9246 14.6261 59.5653 14.1547 60.3237 13.6834C61.0821 13.1858 61.8536 12.7669 62.6382 12.4265C63.4489 12.086 64.1942 11.9158 64.8741 11.9158L65.8941 16.0008C65.2926 16.0008 64.6126 16.1448 63.8542 16.4329C63.0958 16.7209 62.2982 17.1137 61.4613 17.6112C60.6506 18.1088 59.8792 18.6849 59.1469 19.3395V30.966H54.0473V11.9158H56.7148ZM87.6279 22.9531C87.7848 23.7911 88.0725 24.5243 88.4909 25.1527C88.9094 25.755 89.5108 26.2263 90.2954 26.5668C91.08 26.9072 92.0999 27.0774 93.3552 27.0774C94.4797 27.0774 95.4734 26.9203 96.3364 26.606C97.1995 26.2918 98.0494 25.8859 98.8862 25.3884L100.377 29.0806C99.8015 29.5519 99.1608 29.9709 98.4547 30.3375C97.7748 30.6779 97.0033 30.9398 96.1403 31.1231C95.3035 31.3326 94.3358 31.4373 93.2375 31.4373C90.7792 31.4373 88.7263 31.0314 87.0787 30.2197C85.4573 29.4079 84.2413 28.2557 83.4306 26.7632C82.6199 25.2444 82.2145 23.4768 82.2145 21.4605C82.2145 19.4181 82.5937 17.6505 83.3521 16.1579C84.1367 14.6392 85.2481 13.4739 86.6865 12.6621C88.1248 11.8242 89.8247 11.4052 91.786 11.4052C93.7736 11.4052 95.408 11.8635 96.6895 12.78C97.9709 13.6703 98.9124 14.8748 99.5139 16.3936C100.142 17.9124 100.455 19.5752 100.455 21.382V22.9531H87.6279ZM88.4517 17.4541C88.0856 18.004 87.8241 18.6979 87.6672 19.5359H95.6303C95.4734 18.6718 95.2119 17.9647 94.8458 17.4148C94.4797 16.8649 94.022 16.4591 93.4728 16.1972C92.9498 15.9092 92.3483 15.7651 91.6684 15.7651C90.9884 15.7651 90.3739 15.9092 89.8247 16.1972C89.2755 16.4853 88.8178 16.9042 88.4517 17.4541Z" fill="#282A30"/>
<path fill-rule="evenodd" clip-rule="evenodd" d="M159.958 6.18495L153.368 0L154.801 14.6903C155.609 13.1945 156.754 12.0339 158.235 11.2086C159.743 10.3575 161.547 9.93198 163.648 9.93198C164.482 9.93198 165.344 10.0996 166.233 10.4349C167.148 10.7702 167.97 11.2086 168.697 11.7502C168.873 11.8765 169.039 12.0041 169.196 12.1332L170.353 10.5709H173.207L174.293 0L167.703 6.18495L163.83 0L159.958 6.18495ZM128.398 8.41999C127.849 8.96989 127.182 9.24484 126.398 9.24484C125.587 9.24484 124.907 8.96989 124.358 8.41999C123.809 7.84391 123.534 7.14998 123.534 6.33822C123.534 5.52647 123.809 4.84564 124.358 4.29574C124.907 3.74583 125.574 3.47088 126.358 3.47088C127.143 3.47088 127.81 3.74583 128.359 4.29574C128.934 4.84564 129.222 5.52647 129.222 6.33822C129.222 7.14998 128.947 7.84391 128.398 8.41999ZM138.371 17.8076C138.816 17.4934 139.299 17.1529 139.823 16.7863C140.372 16.4197 140.96 16.1186 141.588 15.8829C142.215 15.6473 142.843 15.5294 143.471 15.5294C144.308 15.5294 144.974 15.8437 145.471 16.4721C145.968 17.1006 146.217 18.0302 146.217 19.2609V30.9659H151.316V19.0252C151.316 17.5588 151.12 16.2495 150.728 15.0974C150.362 13.919 149.708 12.9894 148.766 12.3086C147.851 11.6277 146.53 11.2873 144.804 11.2873C144.124 11.2873 143.366 11.3921 142.529 11.6016C141.719 11.7849 140.869 12.086 139.979 12.505C139.116 12.8978 138.28 13.3691 137.469 13.919L136.606 11.9158H133.272V30.9659H138.371V17.8076ZM173.259 31.8693C173.259 33.65 172.828 35.1425 171.965 36.3471C171.128 37.5516 169.951 38.455 168.434 39.0573C166.918 39.6858 165.152 40 163.139 40C162.746 40 162.21 39.9476 161.53 39.8429C160.877 39.7643 160.17 39.6334 159.412 39.4501C158.654 39.2668 157.921 39.0311 157.215 38.7431C156.509 38.4812 155.895 38.1801 155.372 37.8397L156.902 34.226C158.078 34.8021 159.151 35.2211 160.118 35.483C161.086 35.7448 162.053 35.8888 163.021 35.915C164.538 35.8888 165.767 35.5091 166.708 34.7759C167.676 34.0689 168.16 33.087 168.16 31.83V30.1892C167.625 30.5236 167.063 30.7956 166.473 31.0052C165.688 31.2932 164.839 31.4373 163.923 31.4373C161.962 31.4373 160.262 31.0314 158.824 30.2196C157.385 29.3817 156.274 28.2164 155.489 26.7238C154.731 25.2312 154.352 23.4899 154.352 21.4998C154.352 19.4835 154.731 17.729 155.489 16.2364C156.274 14.7177 157.385 13.5393 158.824 12.7014C160.288 11.8372 162.04 11.4052 164.08 11.4052C164.891 11.4052 165.728 11.5754 166.591 11.9158C167.48 12.2562 168.277 12.7014 168.984 13.2513C169.154 13.3795 169.316 13.5091 169.468 13.6401L170.592 11.9158H173.259V31.8693ZM168.16 17.3677C167.626 16.912 167.116 16.5742 166.63 16.3543C165.845 15.9615 165.022 15.7651 164.159 15.7651C163.191 15.7651 162.367 16.0139 161.687 16.5114C161.007 17.0089 160.484 17.6897 160.118 18.5539C159.778 19.3918 159.608 20.3738 159.608 21.4998C159.608 22.5734 159.778 23.5292 160.118 24.3671C160.484 25.2051 161.007 25.8728 161.687 26.3703C162.393 26.8417 163.204 27.0773 164.119 27.0773C165.009 27.0773 165.845 26.8679 166.63 26.4489C167.121 26.1952 167.631 25.8648 168.16 25.4576V17.3677ZM176.726 29.4733C177.327 29.9185 178.033 30.2982 178.844 30.6124C179.681 30.9005 180.504 31.1099 181.315 31.2409C182.126 31.3718 182.793 31.4373 183.316 31.4373C185.905 31.4373 187.866 30.9135 189.2 29.8661C190.56 28.8187 191.24 27.3654 191.24 25.5062C191.24 24.3802 190.913 23.4113 190.259 22.5996C189.631 21.7616 188.821 21.0415 187.827 20.4392C186.859 19.837 185.839 19.3656 184.767 19.0252C184.113 18.7895 183.447 18.5277 182.767 18.2396C182.113 17.9254 181.799 17.5719 181.825 17.1791C181.825 16.734 182.034 16.3543 182.453 16.04C182.897 15.6996 183.446 15.5294 184.1 15.5294C184.963 15.5294 185.787 15.6473 186.572 15.8829C187.356 16.1186 188.206 16.4328 189.121 16.8256L190.651 13.4084C190.024 12.9632 189.304 12.5966 188.494 12.3086C187.683 12.0205 186.885 11.798 186.101 11.6408C185.342 11.4837 184.689 11.4052 184.14 11.4052C181.838 11.4052 180.021 11.9289 178.687 12.9763C177.379 13.9976 176.726 15.4116 176.726 17.2184C176.726 18.2658 177.039 19.1692 177.667 19.9286C178.321 20.688 179.131 21.3296 180.099 21.8533C181.093 22.3508 182.074 22.7698 183.041 23.1102C183.773 23.3197 184.375 23.5554 184.846 23.8172C185.342 24.0791 185.722 24.3671 185.983 24.6813C186.245 24.9694 186.375 25.2967 186.375 25.6633C186.375 26.0299 186.192 26.3441 185.826 26.606C185.486 26.8417 185.081 27.025 184.61 27.1559C184.139 27.2606 183.682 27.313 183.237 27.313C182.767 27.313 182.257 27.2606 181.707 27.1559C181.184 27.0512 180.635 26.9071 180.06 26.7238C179.485 26.5143 178.883 26.2918 178.255 26.0561L176.726 29.4733ZM128.987 11.9158V30.9659H123.848V11.9158H128.987ZM111.704 23.9479L115.378 20.714L121.706 30.9659H115.861L111.704 23.9479ZM117.195 11.3659L120.058 15.0188L109.035 24.7206V30.9659H103.975V3.66727L109.035 3.2352V18.8681L117.195 11.3659Z" fill="#F0B80F"/>
<path fill-rule="evenodd" clip-rule="evenodd" d="M159.958 6.18495L153.368 0L154.801 14.6903C155.609 13.1945 156.754 12.0339 158.235 11.2086C159.743 10.3575 161.547 9.93198 163.648 9.93198C164.482 9.93198 165.344 10.0996 166.233 10.4349C167.148 10.7702 167.97 11.2086 168.697 11.7502C168.873 11.8765 169.039 12.0041 169.196 12.1332L170.353 10.5709H173.207L174.293 0L167.703 6.18495L163.83 0L159.958 6.18495ZM128.398 8.41999C127.849 8.96989 127.182 9.24484 126.398 9.24484C125.587 9.24484 124.907 8.96989 124.358 8.41999C123.809 7.84391 123.534 7.14998 123.534 6.33822C123.534 5.52647 123.809 4.84564 124.358 4.29574C124.907 3.74583 125.574 3.47088 126.358 3.47088C127.143 3.47088 127.81 3.74583 128.359 4.29574C128.934 4.84564 129.222 5.52647 129.222 6.33822C129.222 7.14998 128.947 7.84391 128.398 8.41999ZM138.371 17.8076C138.816 17.4934 139.299 17.1529 139.823 16.7863C140.372 16.4197 140.96 16.1186 141.588 15.8829C142.215 15.6473 142.843 15.5294 143.471 15.5294C144.308 15.5294 144.974 15.8437 145.471 16.4721C145.968 17.1006 146.217 18.0302 146.217 19.2609V30.9659H151.316V19.0252C151.316 17.5588 151.12 16.2495 150.728 15.0974C150.362 13.919 149.708 12.9894 148.766 12.3086C147.851 11.6277 146.53 11.2873 144.804 11.2873C144.124 11.2873 143.366 11.3921 142.529 11.6016C141.719 11.7849 140.869 12.086 139.979 12.505C139.116 12.8978 138.28 13.3691 137.469 13.919L136.606 11.9158H133.272V30.9659H138.371V17.8076ZM173.259 31.8693C173.259 33.65 172.828 35.1425 171.965 36.3471C171.128 37.5516 169.951 38.455 168.434 39.0573C166.918 39.6858 165.152 40 163.139 40C162.746 40 162.21 39.9476 161.53 39.8429C160.877 39.7643 160.17 39.6334 159.412 39.4501C158.654 39.2668 157.921 39.0311 157.215 38.7431C156.509 38.4812 155.895 38.1801 155.372 37.8397L156.902 34.226C158.078 34.8021 159.151 35.2211 160.118 35.483C161.086 35.7448 162.053 35.8888 163.021 35.915C164.538 35.8888 165.767 35.5091 166.708 34.7759C167.676 34.0689 168.16 33.087 168.16 31.83V30.1892C167.625 30.5236 167.063 30.7956 166.473 31.0052C165.688 31.2932 164.839 31.4373 163.923 31.4373C161.962 31.4373 160.262 31.0314 158.824 30.2196C157.385 29.3817 156.274 28.2164 155.489 26.7238C154.731 25.2312 154.352 23.4899 154.352 21.4998C154.352 19.4835 154.731 17.729 155.489 16.2364C156.274 14.7177 157.385 13.5393 158.824 12.7014C160.288 11.8372 162.04 11.4052 164.08 11.4052C164.891 11.4052 165.728 11.5754 166.591 11.9158C167.48 12.2562 168.277 12.7014 168.984 13.2513C169.154 13.3795 169.316 13.5091 169.468 13.6401L170.592 11.9158H173.259V31.8693ZM168.16 17.3677C167.626 16.912 167.116 16.5742 166.63 16.3543C165.845 15.9615 165.022 15.7651 164.159 15.7651C163.191 15.7651 162.367 16.0139 161.687 16.5114C161.007 17.0089 160.484 17.6897 160.118 18.5539C159.778 19.3918 159.608 20.3738 159.608 21.4998C159.608 22.5734 159.778 23.5292 160.118 24.3671C160.484 25.2051 161.007 25.8728 161.687 26.3703C162.393 26.8417 163.204 27.0773 164.119 27.0773C165.009 27.0773 165.845 26.8679 166.63 26.4489C167.121 26.1952 167.631 25.8648 168.16 25.4576V17.3677ZM176.726 29.4733C177.327 29.9185 178.033 30.2982 178.844 30.6124C179.681 30.9005 180.504 31.1099 181.315 31.2409C182.126 31.3718 182.793 31.4373 183.316 31.4373C185.905 31.4373 187.866 30.9135 189.2 29.8661C190.56 28.8187 191.24 27.3654 191.24 25.5062C191.24 24.3802 190.913 23.4113 190.259 22.5996C189.631 21.7616 188.821 21.0415 187.827 20.4392C186.859 19.837 185.839 19.3656 184.767 19.0252C184.113 18.7895 183.447 18.5277 182.767 18.2396C182.113 17.9254 181.799 17.5719 181.825 17.1791C181.825 16.734 182.034 16.3543 182.453 16.04C182.897 15.6996 183.446 15.5294 184.1 15.5294C184.963 15.5294 185.787 15.6473 186.572 15.8829C187.356 16.1186 188.206 16.4328 189.121 16.8256L190.651 13.4084C190.024 12.9632 189.304 12.5966 188.494 12.3086C187.683 12.0205 186.885 11.798 186.101 11.6408C185.342 11.4837 184.689 11.4052 184.14 11.4052C181.838 11.4052 180.021 11.9289 178.687 12.9763C177.379 13.9976 176.726 15.4116 176.726 17.2184C176.726 18.2658 177.039 19.1692 177.667 19.9286C178.321 20.688 179.131 21.3296 180.099 21.8533C181.093 22.3508 182.074 22.7698 183.041 23.1102C183.773 23.3197 184.375 23.5554 184.846 23.8172C185.342 24.0791 185.722 24.3671 185.983 24.6813C186.245 24.9694 186.375 25.2967 186.375 25.6633C186.375 26.0299 186.192 26.3441 185.826 26.606C185.486 26.8417 185.081 27.025 184.61 27.1559C184.139 27.2606 183.682 27.313 183.237 27.313C182.767 27.313 182.257 27.2606 181.707 27.1559C181.184 27.0512 180.635 26.9071 180.06 26.7238C179.485 26.5143 178.883 26.2918 178.255 26.0561L176.726 29.4733ZM128.987 11.9158V30.9659H123.848V11.9158H128.987ZM111.704 23.9479L115.378 20.714L121.706 30.9659H115.861L111.704 23.9479ZM117.195 11.3659L120.058 15.0188L109.035 24.7206V30.9659H103.975V3.66727L109.035 3.2352V18.8681L117.195 11.3659Z" fill="url(#paint0_linear_513_5712)"/>
<path fill-rule="evenodd" clip-rule="evenodd" d="M159.958 6.18495L153.368 0L154.801 14.6903C155.609 13.1945 156.754 12.0339 158.235 11.2086C159.743 10.3575 161.547 9.93198 163.648 9.93198C164.482 9.93198 165.344 10.0996 166.233 10.4349C167.148 10.7702 167.97 11.2086 168.697 11.7502C168.873 11.8765 169.039 12.0041 169.196 12.1332L170.353 10.5709H173.207L174.293 0L167.703 6.18495L163.83 0L159.958 6.18495ZM128.398 8.41999C127.849 8.96989 127.182 9.24484 126.398 9.24484C125.587 9.24484 124.907 8.96989 124.358 8.41999C123.809 7.84391 123.534 7.14998 123.534 6.33822C123.534 5.52647 123.809 4.84564 124.358 4.29574C124.907 3.74583 125.574 3.47088 126.358 3.47088C127.143 3.47088 127.81 3.74583 128.359 4.29574C128.934 4.84564 129.222 5.52647 129.222 6.33822C129.222 7.14998 128.947 7.84391 128.398 8.41999ZM138.371 17.8076C138.816 17.4934 139.299 17.1529 139.823 16.7863C140.372 16.4197 140.96 16.1186 141.588 15.8829C142.215 15.6473 142.843 15.5294 143.471 15.5294C144.308 15.5294 144.974 15.8437 145.471 16.4721C145.968 17.1006 146.217 18.0302 146.217 19.2609V30.9659H151.316V19.0252C151.316 17.5588 151.12 16.2495 150.728 15.0974C150.362 13.919 149.708 12.9894 148.766 12.3086C147.851 11.6277 146.53 11.2873 144.804 11.2873C144.124 11.2873 143.366 11.3921 142.529 11.6016C141.719 11.7849 140.869 12.086 139.979 12.505C139.116 12.8978 138.28 13.3691 137.469 13.919L136.606 11.9158H133.272V30.9659H138.371V17.8076ZM173.259 31.8693C173.259 33.65 172.828 35.1425 171.965 36.3471C171.128 37.5516 169.951 38.455 168.434 39.0573C166.918 39.6858 165.152 40 163.139 40C162.746 40 162.21 39.9476 161.53 39.8429C160.877 39.7643 160.17 39.6334 159.412 39.4501C158.654 39.2668 157.921 39.0311 157.215 38.7431C156.509 38.4812 155.895 38.1801 155.372 37.8397L156.902 34.226C158.078 34.8021 159.151 35.2211 160.118 35.483C161.086 35.7448 162.053 35.8888 163.021 35.915C164.538 35.8888 165.767 35.5091 166.708 34.7759C167.676 34.0689 168.16 33.087 168.16 31.83V30.1892C167.625 30.5236 167.063 30.7956 166.473 31.0052C165.688 31.2932 164.839 31.4373 163.923 31.4373C161.962 31.4373 160.262 31.0314 158.824 30.2196C157.385 29.3817 156.274 28.2164 155.489 26.7238C154.731 25.2312 154.352 23.4899 154.352 21.4998C154.352 19.4835 154.731 17.729 155.489 16.2364C156.274 14.7177 157.385 13.5393 158.824 12.7014C160.288 11.8372 162.04 11.4052 164.08 11.4052C164.891 11.4052 165.728 11.5754 166.591 11.9158C167.48 12.2562 168.277 12.7014 168.984 13.2513C169.154 13.3795 169.316 13.5091 169.468 13.6401L170.592 11.9158H173.259V31.8693ZM168.16 17.3677C167.626 16.912 167.116 16.5742 166.63 16.3543C165.845 15.9615 165.022 15.7651 164.159 15.7651C163.191 15.7651 162.367 16.0139 161.687 16.5114C161.007 17.0089 160.484 17.6897 160.118 18.5539C159.778 19.3918 159.608 20.3738 159.608 21.4998C159.608 22.5734 159.778 23.5292 160.118 24.3671C160.484 25.2051 161.007 25.8728 161.687 26.3703C162.393 26.8417 163.204 27.0773 164.119 27.0773C165.009 27.0773 165.845 26.8679 166.63 26.4489C167.121 26.1952 167.631 25.8648 168.16 25.4576V17.3677ZM176.726 29.4733C177.327 29.9185 178.033 30.2982 178.844 30.6124C179.681 30.9005 180.504 31.1099 181.315 31.2409C182.126 31.3718 182.793 31.4373 183.316 31.4373C185.905 31.4373 187.866 30.9135 189.2 29.8661C190.56 28.8187 191.24 27.3654 191.24 25.5062C191.24 24.3802 190.913 23.4113 190.259 22.5996C189.631 21.7616 188.821 21.0415 187.827 20.4392C186.859 19.837 185.839 19.3656 184.767 19.0252C184.113 18.7895 183.447 18.5277 182.767 18.2396C182.113 17.9254 181.799 17.5719 181.825 17.1791C181.825 16.734 182.034 16.3543 182.453 16.04C182.897 15.6996 183.446 15.5294 184.1 15.5294C184.963 15.5294 185.787 15.6473 186.572 15.8829C187.356 16.1186 188.206 16.4328 189.121 16.8256L190.651 13.4084C190.024 12.9632 189.304 12.5966 188.494 12.3086C187.683 12.0205 186.885 11.798 186.101 11.6408C185.342 11.4837 184.689 11.4052 184.14 11.4052C181.838 11.4052 180.021 11.9289 178.687 12.9763C177.379 13.9976 176.726 15.4116 176.726 17.2184C176.726 18.2658 177.039 19.1692 177.667 19.9286C178.321 20.688 179.131 21.3296 180.099 21.8533C181.093 22.3508 182.074 22.7698 183.041 23.1102C183.773 23.3197 184.375 23.5554 184.846 23.8172C185.342 24.0791 185.722 24.3671 185.983 24.6813C186.245 24.9694 186.375 25.2967 186.375 25.6633C186.375 26.0299 186.192 26.3441 185.826 26.606C185.486 26.8417 185.081 27.025 184.61 27.1559C184.139 27.2606 183.682 27.313 183.237 27.313C182.767 27.313 182.257 27.2606 181.707 27.1559C181.184 27.0512 180.635 26.9071 180.06 26.7238C179.485 26.5143 178.883 26.2918 178.255 26.0561L176.726 29.4733ZM128.987 11.9158V30.9659H123.848V11.9158H128.987ZM111.704 23.9479L115.378 20.714L121.706 30.9659H115.861L111.704 23.9479ZM117.195 11.3659L120.058 15.0188L109.035 24.7206V30.9659H103.975V3.66727L109.035 3.2352V18.8681L117.195 11.3659Z" fill="url(#paint1_radial_513_5712)"/>
<path fill-rule="evenodd" clip-rule="evenodd" d="M159.958 6.18495L153.368 0L154.801 14.6903C155.609 13.1945 156.754 12.0339 158.235 11.2086C159.743 10.3575 161.547 9.93198 163.648 9.93198C164.482 9.93198 165.344 10.0996 166.233 10.4349C167.148 10.7702 167.97 11.2086 168.697 11.7502C168.873 11.8765 169.039 12.0041 169.196 12.1332L170.353 10.5709H173.207L174.293 0L167.703 6.18495L163.83 0L159.958 6.18495ZM128.398 8.41999C127.849 8.96989 127.182 9.24484 126.398 9.24484C125.587 9.24484 124.907 8.96989 124.358 8.41999C123.809 7.84391 123.534 7.14998 123.534 6.33822C123.534 5.52647 123.809 4.84564 124.358 4.29574C124.907 3.74583 125.574 3.47088 126.358 3.47088C127.143 3.47088 127.81 3.74583 128.359 4.29574C128.934 4.84564 129.222 5.52647 129.222 6.33822C129.222 7.14998 128.947 7.84391 128.398 8.41999ZM138.371 17.8076C138.816 17.4934 139.299 17.1529 139.823 16.7863C140.372 16.4197 140.96 16.1186 141.588 15.8829C142.215 15.6473 142.843 15.5294 143.471 15.5294C144.308 15.5294 144.974 15.8437 145.471 16.4721C145.968 17.1006 146.217 18.0302 146.217 19.2609V30.9659H151.316V19.0252C151.316 17.5588 151.12 16.2495 150.728 15.0974C150.362 13.919 149.708 12.9894 148.766 12.3086C147.851 11.6277 146.53 11.2873 144.804 11.2873C144.124 11.2873 143.366 11.3921 142.529 11.6016C141.719 11.7849 140.869 12.086 139.979 12.505C139.116 12.8978 138.28 13.3691 137.469 13.919L136.606 11.9158H133.272V30.9659H138.371V17.8076ZM173.259 31.8693C173.259 33.65 172.828 35.1425 171.965 36.3471C171.128 37.5516 169.951 38.455 168.434 39.0573C166.918 39.6858 165.152 40 163.139 40C162.746 40 162.21 39.9476 161.53 39.8429C160.877 39.7643 160.17 39.6334 159.412 39.4501C158.654 39.2668 157.921 39.0311 157.215 38.7431C156.509 38.4812 155.895 38.1801 155.372 37.8397L156.902 34.226C158.078 34.8021 159.151 35.2211 160.118 35.483C161.086 35.7448 162.053 35.8888 163.021 35.915C164.538 35.8888 165.767 35.5091 166.708 34.7759C167.676 34.0689 168.16 33.087 168.16 31.83V30.1892C167.625 30.5236 167.063 30.7956 166.473 31.0052C165.688 31.2932 164.839 31.4373 163.923 31.4373C161.962 31.4373 160.262 31.0314 158.824 30.2196C157.385 29.3817 156.274 28.2164 155.489 26.7238C154.731 25.2312 154.352 23.4899 154.352 21.4998C154.352 19.4835 154.731 17.729 155.489 16.2364C156.274 14.7177 157.385 13.5393 158.824 12.7014C160.288 11.8372 162.04 11.4052 164.08 11.4052C164.891 11.4052 165.728 11.5754 166.591 11.9158C167.48 12.2562 168.277 12.7014 168.984 13.2513C169.154 13.3795 169.316 13.5091 169.468 13.6401L170.592 11.9158H173.259V31.8693ZM168.16 17.3677C167.626 16.912 167.116 16.5742 166.63 16.3543C165.845 15.9615 165.022 15.7651 164.159 15.7651C163.191 15.7651 162.367 16.0139 161.687 16.5114C161.007 17.0089 160.484 17.6897 160.118 18.5539C159.778 19.3918 159.608 20.3738 159.608 21.4998C159.608 22.5734 159.778 23.5292 160.118 24.3671C160.484 25.2051 161.007 25.8728 161.687 26.3703C162.393 26.8417 163.204 27.0773 164.119 27.0773C165.009 27.0773 165.845 26.8679 166.63 26.4489C167.121 26.1952 167.631 25.8648 168.16 25.4576V17.3677ZM176.726 29.4733C177.327 29.9185 178.033 30.2982 178.844 30.6124C179.681 30.9005 180.504 31.1099 181.315 31.2409C182.126 31.3718 182.793 31.4373 183.316 31.4373C185.905 31.4373 187.866 30.9135 189.2 29.8661C190.56 28.8187 191.24 27.3654 191.24 25.5062C191.24 24.3802 190.913 23.4113 190.259 22.5996C189.631 21.7616 188.821 21.0415 187.827 20.4392C186.859 19.837 185.839 19.3656 184.767 19.0252C184.113 18.7895 183.447 18.5277 182.767 18.2396C182.113 17.9254 181.799 17.5719 181.825 17.1791C181.825 16.734 182.034 16.3543 182.453 16.04C182.897 15.6996 183.446 15.5294 184.1 15.5294C184.963 15.5294 185.787 15.6473 186.572 15.8829C187.356 16.1186 188.206 16.4328 189.121 16.8256L190.651 13.4084C190.024 12.9632 189.304 12.5966 188.494 12.3086C187.683 12.0205 186.885 11.798 186.101 11.6408C185.342 11.4837 184.689 11.4052 184.14 11.4052C181.838 11.4052 180.021 11.9289 178.687 12.9763C177.379 13.9976 176.726 15.4116 176.726 17.2184C176.726 18.2658 177.039 19.1692 177.667 19.9286C178.321 20.688 179.131 21.3296 180.099 21.8533C181.093 22.3508 182.074 22.7698 183.041 23.1102C183.773 23.3197 184.375 23.5554 184.846 23.8172C185.342 24.0791 185.722 24.3671 185.983 24.6813C186.245 24.9694 186.375 25.2967 186.375 25.6633C186.375 26.0299 186.192 26.3441 185.826 26.606C185.486 26.8417 185.081 27.025 184.61 27.1559C184.139 27.2606 183.682 27.313 183.237 27.313C182.767 27.313 182.257 27.2606 181.707 27.1559C181.184 27.0512 180.635 26.9071 180.06 26.7238C179.485 26.5143 178.883 26.2918 178.255 26.0561L176.726 29.4733ZM128.987 11.9158V30.9659H123.848V11.9158H128.987ZM111.704 23.9479L115.378 20.714L121.706 30.9659H115.861L111.704 23.9479ZM117.195 11.3659L120.058 15.0188L109.035 24.7206V30.9659H103.975V3.66727L109.035 3.2352V18.8681L117.195 11.3659Z" fill="url(#paint2_radial_513_5712)"/>
<defs>
<linearGradient id="paint0_linear_513_5712" x1="103.975" y1="0" x2="191.286" y2="39.8983" gradientUnits="userSpaceOnUse">
<stop stop-color="#FFD977"/>
<stop offset="0.488869" stop-color="#FFCF53"/>
<stop offset="1" stop-color="#FFD977"/>
</linearGradient>
<radialGradient id="paint1_radial_513_5712" cx="0" cy="0" r="1" gradientUnits="userSpaceOnUse" gradientTransform="translate(104.413 33.8095) rotate(-32.6593) scale(42.3561 42.3834)">
<stop stop-color="#FFA653"/>
<stop offset="1" stop-color="#FFCF53" stop-opacity="0"/>
</radialGradient>
<radialGradient id="paint2_radial_513_5712" cx="0" cy="0" r="1" gradientUnits="userSpaceOnUse" gradientTransform="translate(196.652 -6.19048) rotate(138.034) scale(62.6665 62.6768)">
<stop stop-color="#FFA653"/>
<stop offset="1" stop-color="#FFCF53" stop-opacity="0"/>
</radialGradient>
</defs>
</svg>
